<mxfile host="Electron" modified="2024-08-06T00:58:44.858Z" agent="Mozilla/5.0 (Windows NT 10.0; Win64; x64) AppleWebKit/537.36 (KHTML, like Gecko) draw.io/24.6.4 Chrome/124.0.6367.207 Electron/30.0.6 Safari/537.36" etag="PB1ZqDpuy82ATUI0uId8" version="24.6.4" type="device">
  <diagram name="Page-1" id="UVHsehSIYeM9AYntb6sW">
    <mxGraphModel dx="955" dy="565" grid="1" gridSize="10" guides="1" tooltips="1" connect="1" arrows="1" fold="1" page="1" pageScale="1" pageWidth="850" pageHeight="1100" background="#ffffff" math="0" shadow="0">
      <root>
        <mxCell id="0" />
        <mxCell id="1" parent="0" />
        <mxCell id="Wq48PtBASZIQ_A7TdbFt-9" style="edgeStyle=orthogonalEdgeStyle;rounded=0;orthogonalLoop=1;jettySize=auto;html=1;entryX=0.5;entryY=0;entryDx=0;entryDy=0;strokeColor=#000000;" edge="1" parent="1" source="Wq48PtBASZIQ_A7TdbFt-2" target="Wq48PtBASZIQ_A7TdbFt-6">
          <mxGeometry relative="1" as="geometry" />
        </mxCell>
        <mxCell id="Wq48PtBASZIQ_A7TdbFt-2" value="&lt;font color=&quot;#000000&quot;&gt;&lt;b&gt;GitHub Pull Request&lt;/b&gt;&lt;/font&gt;" style="text;html=1;align=center;verticalAlign=middle;whiteSpace=wrap;rounded=0;perimeterSpacing=0;strokeColor=#000000;strokeWidth=3;" vertex="1" parent="1">
          <mxGeometry x="235" y="270" width="95" height="50" as="geometry" />
        </mxCell>
        <mxCell id="Wq48PtBASZIQ_A7TdbFt-6" value="&lt;font color=&quot;#000000&quot;&gt;&lt;b&gt;Merge to Main&lt;/b&gt;&lt;/font&gt;" style="text;html=1;align=center;verticalAlign=middle;whiteSpace=wrap;rounded=0;perimeterSpacing=0;strokeColor=#000000;strokeWidth=3;" vertex="1" parent="1">
          <mxGeometry x="235" y="390" width="95" height="50" as="geometry" />
        </mxCell>
        <mxCell id="Wq48PtBASZIQ_A7TdbFt-14" value="" style="group" vertex="1" connectable="0" parent="1">
          <mxGeometry x="510" y="250" width="141.38" height="102.5" as="geometry" />
        </mxCell>
        <mxCell id="Wq48PtBASZIQ_A7TdbFt-12" value="" style="verticalLabelPosition=bottom;html=1;verticalAlign=top;align=center;strokeColor=#666666;fillColor=#f5f5f5;shape=mxgraph.azure.cloud;fontColor=#333333;" vertex="1" parent="Wq48PtBASZIQ_A7TdbFt-14">
          <mxGeometry width="141.38" height="102.5" as="geometry" />
        </mxCell>
        <mxCell id="Wq48PtBASZIQ_A7TdbFt-10" value="" style="shape=image;verticalLabelPosition=bottom;labelBackgroundColor=default;verticalAlign=top;aspect=fixed;imageAspect=0;image=data:image/png,iVBORw0KGgoAAAANSUhEUgAAAgAAAAIACAMAAADDpiTIAAAB+FBMVEUAAACAO/OAPPOAN+2CPfOBPPOCPPOqVf+BPPOAPvOCPPSDPvCBPPOCO/KBPPOBPPOBPPOBPPSAAP+JO+uAPPKAQO+BPPKBPPOBPPOBPPOBPPOCPfKAQOqBPfKEOveBPPOGPfODOvCIRO6APfOBPfOCPvWBPPOAQPKBPPOAK/+BPPSBPPOBPPKBPPOAPfWBO/OFPfWAPPOBPPSAO/WOOf+BPPKCPPWBPPOBPPOBPPOBO/SAO/WBPPP/AP+BPPOBPPOEOfaAM/+COvWBPPOBPPKBPPOBPPKAPfGAQPaBPPOBPPOBPfOLRuiCPPGEPvaBPPOCPPSBPPOBPPOAPPOBPPOAPvKBO/OAPPeBPPOBPPOAOfGBPPOAPvODPvGBPPOAQO+BPPOBPPOFN/SBPfOBPPSBPfSAPPKHPPCCOvKCO/OBPfOGNvKBPPKCPPSAPPCBPPOBPfSBPPOCPPOAPfOBPPOAO/WBPPOBPPOBPPOCPvSBPPOBPPOSSf+CPPOBPPSAQP+AQPSAO/GBO/OBPPOBO/WBPPOAQP+AOvOBPPOAOvOBPPOAPfSBPfOBPPSBPPOAPPSBPPOBPPOBPPOAPPSDO/KBPPSCO/OZM/+APPKAOfGBPPOCO/OAOfKCPfKAOvSBPPKBPPOBPPOCPPSDPvOCPPKBPPOBPPOBPPNSoHwvAAAAp3RSTlMAUpEOWOZmA80+syH5PeXM9ogCDTwgy/6q9eQ7DMof4hUjD1RTMcAU/AZv8U3dMsEZmd4aCXczwv3y3zTDAVXEGwo18+DFojYcgOHGCzcd917nx0DPOkEe6NAk+EIl4xDp0RekyUMmETls7BNRLyLWR/q7KthK7vu8LdrvB7/0CBg4ztdJ7QQs2Ra+LtvI0kTq69NIJ7QrBUwS1L0otTC21fBaKbfcuKvJ70YAAA8pSURBVHja7Z3pf1bFGUDTgCARBeKShEVcWUJEIolEbCiLBqOAcQMXXItKtbUF29rWttbaWu1uN7u3drv/Zt/ABea+611m5pmZ55xvhiTMnZyfczRzZ4aGAAAAAAAAAAAAAAAAAAAAAAAAAAAAAAAAAAAAAAAAACBZPje8QnoIIMnK7KpVq6UHAXKszLLs6jXSowAxlgXIspFrpMcBQlwUIFtLCiglFyAjBZRyWYBWClwrPRjwjyEAKaCRggCkgD6KApAC6mgXgBRQRqcApIAquglACiiiqwBZdh0poIQeAmTZOlJABT0FIAV00EeAbP0GUiB5+gmwnAKj0gMEt/QXgBRInkECkAKJM1iAVgpcLz1KcEYJAUiBlCklACmQLiUFIAVSpbQApECalBeAFEiSKgKQAglSTQBSIDmqCkAKJEZlAUiBtKghQCsFbpAeNtiilgCtFLhReuBgh5oCkAKpUFcAUiAR6gtACiRBEwFIgQRoJgApED0NBSAFYqexAFl2EykQMRYEIAVixooApEC82BGAFIgWWwKQApFiTwBSIEpsCkAKRIhVAUiB+LAsACkQG9YFyMbGSYGIsC8AKRAVLgQgBSLCjQCkQDS4EoAUiARnAmTZBCkQAQ4FyLKNpEDwOBWAFAgfxwKQAqHjWgBSIHDcC0AKBI0PAVopsEn6OaEHfgQgBYLFkwCkQKh4E4AUCBOPApACIeJVAFIgPPwKsJwCm6UfGUx8C0AKBIZ/AbJsCykQDhICtFLgZunnhhwRAUiBcBASgBQIBTEBSIEwEBSAFAgBSQFIgQCQFSDLtt4iPQPKkRYgu1V6BpSDAMpBAOWEIsBt/F8BGUIR4HauI2pxxxrvf2UwAnAd0dCd27KV3v/SgATI1g6vkP4ZCLJ9eEemXIDlcwVWS/8chNg5uWt5ArQLoPZmwqm7Lj4+AqhMgd13X3p4BMj0HTG0Z3rH5WdHgAtoOmIoX/wRoPhRNSkwdU/huRHgMipS4MrijwAdf5B+Cuw1Fn8E6PJHaafAzOyuzkdGgCIJp0Db4o8APf440RS4d1/3x0WADlJMgb3Tcz2eFgG6kFoKzMze1/NZEaArSV1SPLW/z5MiQA+SuY7o/s/3fU4E6EUaKdB78UeAgZ8Yfwr0W/wRoMSnxn3w8PyB/YMfEQH6E3EK3P+FMg+IAAOINQUODlr8EaDs58eYAocGL/4IUP4rYkuBUos/AlT4krhOGzxcavFHgEpfFE8KlF38EaDil8WRAodmj1R7LAQoT/gpMH/ggaoPhQAVCD0FDj9Y/ZkQoBIh30FwcGGsxhMhQEVCPW2w8uKPAHW/PsQUqLH4I0DtbxBeChytsfgjQINvEVYKPFRr8UeARt8knBQ4tLi+yYMgQF3CuI5o/sDDzR4DAWoTQgocfaTpUyBAA6RToNHijwA2vpdkChxrtvjnIEBDpO4gaLz45yBAU2TuIDjeePHPQYDm+L+D4ISFxT8HAWzgNwWOLT5qb+gIYAd/KTC69JjNgSOAJXylwPHH7Y4bAazhIwUsLv45CGCRjUvzTqfO6uKfgwBWcZkClhf/HASwi7sUeOJJJwNGANu4SYETC46GiwD2sZ8CLhb/HARwwZanbM6Ym8U/BwGcYDMFTrpZ/HMQwBG2UuCUq8U/BwGcYSMFNrtb/HMQwCFNU2B06WnnY0QAlzRLgZPPeBgiArilfgo8O+5lgAjgmnopsHnxOT/DQwD3VE8BH4t/DgJ4oGoKnPax+OcggBeqpMDzfhb/HATwxAslU+DFDZ4W/xwE8EaZFBhdesnzqBDAH2PjpwbMzemXvQ/KvwCvfHHM+1MWEBOglQKLM31mxu/in+NfgLLHWDtDUIB+KeB78c+REKDSWbb2ERUgy850TQH/i3+OiABVTrO2j7AAXVPgVf+Lf46QAJWPtLWItACdKfCaxOKfIyaAXArIC1BMgddlFv8cQQGkUiAEAVopcDafhS+9IToOSQGEUiAMAbK5vASEhyErgEgKBCLApXEIj0JaAIEUQAATeQG8pwACmAQggO8UQACTIATwmwIIYBKIAD5TAAFMghHAXwoggEk4AnhLAQQwCUkATymAACZhCeAlBRDAJDQBPKQAApgEJ4D7FEAAkwAFcJ0CCGASpABuUwABTAIVwGUKIIBJqAI4TAEEMAlXAGcpgAAmIQvgKAUQwCRsAZykAAKYBC6AixRAAJPgBbCfAghgEoEAtlMAAUyiEMBuCiCASRwCWE0BBDCJRQCLKYAAJvEIYC0FEMAkJgFaKfCAvYlHgAtEJcByChyxNfEIcIHIBLCRAghgEp0AQ0OHG6YAAphEKEDTFEAAkxgFaJgCCGASpwCNUgABTGIVoEEKIIBJvALUTgEEMIlYgLopgAAmUQtQLwUQwCRyAeqkAAKYRC9A9RRAAJP4BaicAghgkoIAFVMAAUzSEKBSCiCASSoCVEgBBDBJRoDyKYAAJgkJUDYFEMAkKQHKpQACmCQmQJkUQACT1AQokQIIYJKeAK0UWBgrMfEIcIEUBRiQAghgkqYAfVMAAUwSFaBfCiCASbIC9E4BBDBJWIBeKYAAJkkL0D0FEMAkbQG6pgACmKQuQJcUQACT9AXoSAEEMNEgQFsKIICJCgGKKYAAJkoEMFMAAUzUCHAlBRBAqQCXUgABtAqQpwAC6BXgQgoggGYBhobOvokAqgW4BAIgAAIgAAJI/xzE+DICtNj6Femfgxh2Dh6OW4D1GzZL/xgksXHwcNQCjNwo/SOQZsAbBGkLsO5a6ekPgcMPKhXgqlWrpec+DORSQFKAtcMrpCc+HKRSQFCAkbekJz0sZFJATICvfk16woOgsARKpICQAG9Msvhf4I5x8z+C5g88rEKAc8O3SU98KNyeTWy43vjnQ4vr0xfg/NvS0x4Oy78L2Lhq1PjIQ35TwL8AX/+G9KSHxMVfBm3ZZH7s6CMJC/DN2Z3Scx4U+W8Dx8ZvNj7oMwX8CvDO9C3SMx4Yl38dPFH4jYi/FPAqwLe+LT3fwWHsB5BJAY8CfOeA9GwHSGFDiEQKeBPg3dnvSk92iBR3BAmkgCcB5hZekZ7qMGnfElZMgWOLj6YhwPf0bvkZQOeewGIKnHCdAj4E2LokPc3h0m1TaDEFjj8euQDfX3xPepYDpuuu4LYUWHosYgHGFn4gPcdB02NbuL8UcCzAmbPSMxw4Pd8L2Lg0b3yauxRwKkDxIaALfV4MKabA+45SwKEAE7q3e5ej35tBxRQYdZMCzgQojh560P/VMA8p4EqAdTdIT20cDHo3sD0FIhHgusL/zIDeDH45tJgCTzwZgQBs9y5PibeD3aaAAwFGrpGe1Ygo9Xq4yxSwLsAP10jPaVSUPB+gmAKnLKaAZQHY7l2R0gdEbHnK/LKTzwQpANu9K1P+hJD2FHg6PAHY7l2dKkfEFFNg8+JzYQnwwY+kJzNGqp0RVEyBZ8cDEuDHkx9Kz2WUVD0kynoK2BHgnent0jMZKZVPCbOdAlYEOP8T6XmMlhrHxNlNAQsCfMR27/rUOifQZgo0FoDt3o2oeVBkMQVOvywmwNzCx9JTGDd1TwptT4GXZAT46c+kJzB26h8VW0yBFzfUTIEmAvycxb8xTc4KLqbA8/VSoL4AbPe2QbPDoi2kQF0B5tjubYWGp4U3T4GaAvzifemZS4TGx8U3TYFaArzAdm9bWLgvoFkK1BBgYnFGetrSwcqFEcUUePWXTgVgu7dV7NwYUvyhfLiqQgpUFeCmTbWeE3pg68qYYgq8Xj4FqgnAdm/b2LszqBhmr5VNgSoCrC+caQk2sHlpVDEFflUuBSoIwHZvB1i9Naw9BX5tU4Cr2e7tAsvXxrWnwFpbAnzCdm83WL83sC0FRqwIcI53vVzh4OLIthT4TXMBRm6VnqZ0cXFzaKUUGCzAB7+VnqSUcXN1bIUUGCQA273d4uru4GIK/O73NQU4x3Zvx7i7PPpMuRToK8D5P0jPT/I4vD18bPyU8Rd9uuqTqgJ89Efp2VGA0+vji7+3/dPwO1UE4GoPLzgVoEwK9BCA7d6ecCxARwr8uZwAf2G7tyecCzAoBboJwHZvf7gXYEAKdApwZJF3vfzhQ4D2FPjr3/oIwNUefvEjQPup3UYKtAmw7e/SM6IMXwK0p8Dku90E2Mp2b994E6BXChgCTPCul388CtCRAv8oCFD8VwR4wqsAHSnwzysCFHcRgC88C9CRAp/lAvyLxV8G3wK0p8DHXOohi38BeLUzKCQE4C6vgJARgOQPBiEBeMc7FMQEIAXCQFAAUiAERAUgBeSRFSDLjuyRngHlSAuQ8daXLAigHARQDgIoBwGUgwDKQQDlIIByEEA5CKAcBFAOAigHAZSDAMpBAOUggHIQQDkIoBwEUA4CKAcBlIMAykEA5SCAchBAOQigHARQDgIoBwGUgwDKQQDlIIByEEA5CKAcBFAOAigHAZSDAMpBAOUggHIQQDkIoBwEUA4CKAcBlIMAykEA5SCAchBAOQigHARQDgIoBwGUgwDKQQDlIIByEEA5CKAcBFAOAigHAZSDAMpBAOUggHIQQDkIoBwEUA4CKAcBlIMAyjm+CwF08+bwDgTQzb//gwDKmfovAujm08nPEEA3YimAAKEglAIIEA4iKYAAASGRAggQFP5TAAECw3cKIEBw+E0BBAgPrymAACHiMQUQIEze/h8CKMdTCiBAsPhJAQQIGB8pgABBc+c2BFCO6xRAgNBxnAIIED5OUwABYsBhCiBAHEzdhQC62Tnp5g0CBIiG7U5SAAEiwkUKIEBU2E8BBIgL6ymAALFhOQUQID6spgACxIjFFECAKLGXAggQKbZSAAGiZffdCKAcGymAADFjIQUQIG4apwACxE7DFECA+GmUAgiQAE1SAAGSYM903RRAgESomwIIkAz1UgAB0qFWCiBAStRIAQRIi8opgACpMXUPAuimWgogQIJUSQEESJLyKYAAiVI2BRAgVUqmAAKkS6kUQICU2b0PAZQzMAUQIHEGpQACJM/evimAAAq4dx8CKKd3CiCADmZmdyGAbvZOzyGAbrqmAAJooksKIIAqZmbvQwDdtKcAAqijmAIIoBAzBRBAI0YKIIBOLqcAAmglTwEE0MvUfgTQzXIKIIBqDi68JT0EAAAAAAAAAAAAAAAAAAAAAAAAAAAAAAAAAAAAAAAAAEid/wPBT2aHyoaJswAAAABJRU5ErkJggg==;" vertex="1" parent="Wq48PtBASZIQ_A7TdbFt-14">
          <mxGeometry x="54" y="18" width="52" height="52" as="geometry" />
        </mxCell>
        <mxCell id="Wq48PtBASZIQ_A7TdbFt-13" value="&lt;font color=&quot;#000000&quot;&gt;&lt;b&gt;HCP Terraform&lt;/b&gt;&lt;/font&gt;" style="text;html=1;align=center;verticalAlign=middle;whiteSpace=wrap;rounded=0;" vertex="1" parent="Wq48PtBASZIQ_A7TdbFt-14">
          <mxGeometry x="46" y="72.5" width="60" height="30" as="geometry" />
        </mxCell>
        <mxCell id="Wq48PtBASZIQ_A7TdbFt-17" value="" style="shape=image;verticalLabelPosition=bottom;labelBackgroundColor=default;verticalAlign=top;aspect=fixed;imageAspect=0;image=https://static-00.iconduck.com/assets.00/aws-icon-2048x1224-qssgmjbc.png;imageBorder=none;" vertex="1" parent="1">
          <mxGeometry x="780" y="216.38" width="78.24" height="46.75" as="geometry" />
        </mxCell>
        <mxCell id="Wq48PtBASZIQ_A7TdbFt-20" value="" style="group" vertex="1" connectable="0" parent="1">
          <mxGeometry x="90" y="210" width="95" height="110" as="geometry" />
        </mxCell>
        <mxCell id="Wq48PtBASZIQ_A7TdbFt-5" value="" style="shape=image;verticalLabelPosition=bottom;labelBackgroundColor=default;verticalAlign=top;aspect=fixed;imageAspect=0;image=data:image/svg+xml,PHN2ZyB4bWxuczp4bGluaz0iaHR0cDovL3d3dy53My5vcmcvMTk5OS94bGluayIgeG1sbnM9Imh0dHA6Ly93d3cudzMub3JnLzIwMDAvc3ZnIiB2aWV3Qm94PSIwIDAgMTI4IDEyOCIgaGVpZ2h0PSIxMjgiIHdpZHRoPSIxMjgiPiYjeGE7ICAgIDxkZWZzPiYjeGE7ICAgICAgICA8Y2lyY2xlIHI9IjU2IiBjeT0iNjQiIGN4PSI2NCIgaWQ9ImIiLz4mI3hhOyAgICAgICAgPGZpbHRlciBpZD0iYSIgZmlsdGVyVW5pdHM9Im9iamVjdEJvdW5kaW5nQm94IiBoZWlnaHQ9IjExNC4zJSIgd2lkdGg9IjExNC4zJSIgeT0iLTUuNCUiIHg9Ii03LjElIj4mI3hhOyAgICAgICAgICAgIDxmZU1vcnBob2xvZ3kgcmVzdWx0PSJzaGFkb3dTcHJlYWRPdXRlcjEiIGluPSJTb3VyY2VBbHBoYSIgb3BlcmF0b3I9ImRpbGF0ZSIgcmFkaXVzPSIxIi8+JiN4YTsgICAgICAgICAgICA8ZmVPZmZzZXQgcmVzdWx0PSJzaGFkb3dPZmZzZXRPdXRlcjEiIGluPSJzaGFkb3dTcHJlYWRPdXRlcjEiIGR5PSIyIi8+JiN4YTsgICAgICAgICAgICA8ZmVHYXVzc2lhbkJsdXIgcmVzdWx0PSJzaGFkb3dCbHVyT3V0ZXIxIiBpbj0ic2hhZG93T2Zmc2V0T3V0ZXIxIiBzdGREZXZpYXRpb249IjIiLz4mI3hhOyAgICAgICAgICAgIDxmZUNvbXBvc2l0ZSByZXN1bHQ9InNoYWRvd0JsdXJPdXRlcjEiIG9wZXJhdG9yPSJvdXQiIGluMj0iU291cmNlQWxwaGEiIGluPSJzaGFkb3dCbHVyT3V0ZXIxIi8+JiN4YTsgICAgICAgICAgICA8ZmVDb2xvck1hdHJpeCBpbj0ic2hhZG93Qmx1ck91dGVyMSIgdmFsdWVzPSIwIDAgMCAwIDAgMCAwIDAgMCAwIDAgMCAwIDAgMCAwIDAgMCAwLjI0MDk0MjAyOSAwIi8+JiN4YTsgICAgICAgIDwvZmlsdGVyPiYjeGE7ICAgICAgICA8bGluZWFyR3JhZGllbnQgaWQ9ImMiIHkyPSIxMDAlIiB4Mj0iNTAlIiB5MT0iMCUiIHgxPSI1MCUiPiYjeGE7ICAgICAgICAgICAgPHN0b3Agb2Zmc2V0PSIwJSIgc3RvcC1jb2xvcj0iI0ZFRkVGRSIvPiYjeGE7ICAgICAgICAgICAgPHN0b3Agb2Zmc2V0PSIxMDAlIiBzdG9wLWNvbG9yPSIjRTBFMEUwIi8+JiN4YTsgICAgICAgIDwvbGluZWFyR3JhZGllbnQ+JiN4YTsgICAgICAgIDxjaXJjbGUgcj0iNTIiIGN5PSI2MyIgY3g9IjY0IiBpZD0iZCIvPiYjeGE7ICAgICAgICA8bGluZWFyR3JhZGllbnQgaWQ9ImciIHkyPSIwJSIgeDI9IjUwJSIgeTE9IjEwMCUiIHgxPSI1MCUiPiYjeGE7ICAgICAgICAgICAgPHN0b3Agb2Zmc2V0PSIwJSIgc3RvcC1jb2xvcj0iIzQ5Mjc3OSIvPiYjeGE7ICAgICAgICAgICAgPHN0b3Agb2Zmc2V0PSIxMDAlIiBzdG9wLWNvbG9yPSIjODkyNzkzIi8+JiN4YTsgICAgICAgIDwvbGluZWFyR3JhZGllbnQ+JiN4YTsgICAgICAgIDxwYXRoIGlkPSJlIiBkPSJNMTIgNjQuMDM0YzAgMjMuMDI1IDE0Ljg4NSA0Mi40NzIgMzUuNTU1IDQ5LjM2NyAyLjYuNDU2IDMuNTc1LTEuMTA1IDMuNTc1LTIuNDcgMC0xLjIzNy0uMDY1LTUuMzM0LS4wNjUtOS42OTJDMzggMTAzLjY0NCAzNC42MiA5OC4wNSAzMy41OCA5NS4xMjRjLS41ODUtMS40OTYtMy4xMi02LjExNC01LjMzLTcuMzUtMS44Mi0uOTc2LTQuNDItMy4zODItLjA2NS0zLjQ0NyA0LjA5NS0uMDY1IDcuMDIgMy43NzIgNy45OTUgNS4zMzMgNC42OCA3Ljg3IDEyLjE1NSA1LjY2IDE1LjE0NSA0LjI5My40NTUtMy4zODIgMS44Mi01LjY2IDMuMzE1LTYuOTYtMTEuNTctMS4zLTIzLjY2LTUuNzg4LTIzLjY2LTI1LjY5IDAtNS42NiAyLjAxNS0xMC4zNDMgNS4zMy0xMy45ODUtLjUyLTEuMy0yLjM0LTYuNjM0LjUyLTEzLjc5IDAgMCA0LjM1NS0xLjM2NSAxNC4zIDUuMzM0IDQuMTYtMS4xNyA4LjU4LTEuNzU2IDEzLTEuNzU2czguODQuNTg2IDEzIDEuNzU2YzkuOTQ1LTYuNzY0IDE0LjMtNS4zMzMgMTQuMy01LjMzMyAyLjg2IDcuMTU0IDEuMDQgMTIuNDg3LjUyIDEzLjc4OCAzLjMxNSAzLjY0MiA1LjMzIDguMjYgNS4zMyAxMy45ODQgMCAxOS45NjgtMTIuMTU1IDI0LjM5LTIzLjcyNSAyNS42OTIgMS44ODUgMS42MjYgMy41MSA0Ljc0OCAzLjUxIDkuNjI2IDAgNi45Ni0uMDY1IDEyLjU1My0uMDY1IDE0LjMxIDAgMS4zNjUuOTc1IDIuOTkgMy41NzUgMi40N0MxMDEuMTE1IDEwNi41MDcgMTE2IDg2Ljk5NSAxMTYgNjQuMDM1IDExNiAzNS4yODQgOTIuNzMgMTIgNjQgMTJTMTIgMzUuMjg1IDEyIDY0LjAzNHoiLz4mI3hhOyAgICAgICAgPGZpbHRlciBpZD0iZiIgZmlsdGVyVW5pdHM9Im9iamVjdEJvdW5kaW5nQm94IiBoZWlnaHQ9IjEwMiUiIHdpZHRoPSIxMDElIiB5PSItLjUlIiB4PSItLjUlIj4mI3hhOyAgICAgICAgICAgIDxmZU9mZnNldCByZXN1bHQ9InNoYWRvd09mZnNldE91dGVyMSIgaW49IlNvdXJjZUFscGhhIiBkeT0iMSIvPiYjeGE7ICAgICAgICAgICAgPGZlQ29sb3JNYXRyaXggaW49InNoYWRvd09mZnNldE91dGVyMSIgdmFsdWVzPSIwIDAgMCAwIDEgMCAwIDAgMCAxIDAgMCAwIDAgMSAwIDAgMCAwLjUyOTI5Njg3NSAwIi8+JiN4YTsgICAgICAgIDwvZmlsdGVyPiYjeGE7ICAgICAgICA8ZmlsdGVyIGlkPSJoIiBmaWx0ZXJVbml0cz0ib2JqZWN0Qm91bmRpbmdCb3giIGhlaWdodD0iMTAzJSIgd2lkdGg9IjEwMS45JSIgeT0iLTElIiB4PSItMSUiPiYjeGE7ICAgICAgICAgICAgPGZlR2F1c3NpYW5CbHVyIHJlc3VsdD0ic2hhZG93Qmx1cklubmVyMSIgaW49IlNvdXJjZUFscGhhIiBzdGREZXZpYXRpb249IjEiLz4mI3hhOyAgICAgICAgICAgIDxmZU9mZnNldCByZXN1bHQ9InNoYWRvd09mZnNldElubmVyMSIgaW49InNoYWRvd0JsdXJJbm5lcjEiLz4mI3hhOyAgICAgICAgICAgIDxmZUNvbXBvc2l0ZSByZXN1bHQ9InNoYWRvd0lubmVySW5uZXIxIiBrMz0iMSIgazI9Ii0xIiBvcGVyYXRvcj0iYXJpdGhtZXRpYyIgaW4yPSJTb3VyY2VBbHBoYSIgaW49InNoYWRvd09mZnNldElubmVyMSIvPiYjeGE7ICAgICAgICAgICAgPGZlQ29sb3JNYXRyaXggaW49InNoYWRvd0lubmVySW5uZXIxIiB2YWx1ZXM9IjAgMCAwIDAgMC4yNTg4MjM1MjkgMCAwIDAgMCAwLjEzNzI1NDkwMiAwIDAgMCAwIDAuNDMxMzcyNTQ5IDAgMCAwIDAuNzAzNTQ5NTkyIDAiLz4mI3hhOyAgICAgICAgPC9maWx0ZXI+JiN4YTsgICAgPC9kZWZzPiYjeGE7ICAgIDxnIGZpbGwtcnVsZT0iZXZlbm9kZCIgZmlsbD0ibm9uZSI+JiN4YTsgICAgICAgIDxwYXRoIGQ9Ik0wIDBoMTI4djEyOEgweiIvPiYjeGE7ICAgICAgICA8dXNlIHhsaW5rOmhyZWY9IiNiIiBmaWx0ZXI9InVybCgjYSkiIGZpbGw9IiMwMDAiLz4mI3hhOyAgICAgICAgPHVzZSB4bGluazpocmVmPSIjYiIgZmlsbD0iI0ZGRiIgZmlsbC1vcGFjaXR5PSIwIiBzdHJva2Utd2lkdGg9IjIiIHN0cm9rZT0iI0JBQkFCQSIgc3Ryb2tlLW9wYWNpdHk9Ii41Ii8+JiN4YTsgICAgICAgIDxjaXJjbGUgcj0iNTYiIGN5PSI2NCIgY3g9IjY0IiBmaWxsPSJ1cmwoI2MpIi8+JiN4YTsgICAgICAgIDxnPiYjeGE7ICAgICAgICAgICAgPHVzZSB4bGluazpocmVmPSIjZSIgZmlsdGVyPSJ1cmwoI2YpIiBmaWxsPSIjMDAwIi8+JiN4YTsgICAgICAgICAgICA8dXNlIHhsaW5rOmhyZWY9IiNlIiBmaWxsPSJ1cmwoI2cpIi8+JiN4YTsgICAgICAgICAgICA8dXNlIHhsaW5rOmhyZWY9IiNlIiBmaWx0ZXI9InVybCgjaCkiIGZpbGw9IiMwMDAiLz4mI3hhOyAgICAgICAgPC9nPiYjeGE7ICAgIDwvZz4mI3hhOzwvc3ZnPg==;" vertex="1" parent="Wq48PtBASZIQ_A7TdbFt-20">
          <mxGeometry x="18.5" width="58" height="58" as="geometry" />
        </mxCell>
        <mxCell id="Wq48PtBASZIQ_A7TdbFt-19" value="&lt;font color=&quot;#000000&quot;&gt;&lt;b&gt;GitHub Repository&lt;/b&gt;&lt;/font&gt;" style="text;html=1;align=center;verticalAlign=middle;whiteSpace=wrap;rounded=0;perimeterSpacing=0;strokeColor=#000000;strokeWidth=3;" vertex="1" parent="Wq48PtBASZIQ_A7TdbFt-20">
          <mxGeometry y="60" width="95" height="50" as="geometry" />
        </mxCell>
        <mxCell id="Wq48PtBASZIQ_A7TdbFt-21" style="edgeStyle=orthogonalEdgeStyle;rounded=0;orthogonalLoop=1;jettySize=auto;html=1;entryX=0;entryY=0.5;entryDx=0;entryDy=0;strokeColor=#000000;" edge="1" parent="1" source="Wq48PtBASZIQ_A7TdbFt-19" target="Wq48PtBASZIQ_A7TdbFt-2">
          <mxGeometry relative="1" as="geometry" />
        </mxCell>
        <mxCell id="Wq48PtBASZIQ_A7TdbFt-22" style="edgeStyle=orthogonalEdgeStyle;rounded=0;orthogonalLoop=1;jettySize=auto;html=1;exitX=0.58;exitY=0.05;exitDx=0;exitDy=0;exitPerimeter=0;entryX=0.5;entryY=0;entryDx=0;entryDy=0;strokeColor=#553B73;strokeWidth=2;dashed=1;" edge="1" parent="1" source="Wq48PtBASZIQ_A7TdbFt-12" target="Wq48PtBASZIQ_A7TdbFt-2">
          <mxGeometry relative="1" as="geometry">
            <Array as="points">
              <mxPoint x="592" y="200" />
              <mxPoint x="283" y="200" />
            </Array>
          </mxGeometry>
        </mxCell>
        <mxCell id="Wq48PtBASZIQ_A7TdbFt-28" style="edgeStyle=orthogonalEdgeStyle;rounded=0;orthogonalLoop=1;jettySize=auto;html=1;exitX=1;exitY=0.5;exitDx=0;exitDy=0;strokeColor=#553B73;strokeWidth=2;dashed=1;entryX=0.045;entryY=0.805;entryDx=0;entryDy=0;entryPerimeter=0;" edge="1" parent="1" source="Wq48PtBASZIQ_A7TdbFt-6" target="Wq48PtBASZIQ_A7TdbFt-12">
          <mxGeometry relative="1" as="geometry">
            <mxPoint x="576" y="233" as="sourcePoint" />
            <mxPoint x="480" y="340" as="targetPoint" />
            <Array as="points">
              <mxPoint x="490" y="415" />
            </Array>
          </mxGeometry>
        </mxCell>
        <mxCell id="Wq48PtBASZIQ_A7TdbFt-29" style="edgeStyle=orthogonalEdgeStyle;rounded=0;orthogonalLoop=1;jettySize=auto;html=1;exitX=1;exitY=0.5;exitDx=0;exitDy=0;strokeColor=#553B73;strokeWidth=2;dashed=1;" edge="1" parent="1" source="Wq48PtBASZIQ_A7TdbFt-2" target="Wq48PtBASZIQ_A7TdbFt-12">
          <mxGeometry relative="1" as="geometry">
            <mxPoint x="340" y="425" as="sourcePoint" />
            <mxPoint x="500" y="310" as="targetPoint" />
            <Array as="points">
              <mxPoint x="330" y="310" />
            </Array>
          </mxGeometry>
        </mxCell>
        <mxCell id="Wq48PtBASZIQ_A7TdbFt-30" value="&lt;font color=&quot;#000000&quot; style=&quot;font-size: 12px;&quot;&gt;&lt;b&gt;Terraform Plan&lt;/b&gt;&lt;/font&gt;" style="text;html=1;align=center;verticalAlign=middle;resizable=0;points=[];autosize=1;strokeColor=none;fillColor=none;" vertex="1" parent="1">
          <mxGeometry x="370" y="286.25" width="110" height="30" as="geometry" />
        </mxCell>
        <mxCell id="Wq48PtBASZIQ_A7TdbFt-25" value="" style="ellipse;whiteSpace=wrap;html=1;aspect=fixed;fillColor=#FFFFFF;fontColor=#333333;strokeColor=#666666;" vertex="1" parent="1">
          <mxGeometry x="420" y="180" width="36.38" height="36.38" as="geometry" />
        </mxCell>
        <mxCell id="Wq48PtBASZIQ_A7TdbFt-24" value="" style="shape=image;verticalLabelPosition=bottom;labelBackgroundColor=default;verticalAlign=top;aspect=fixed;imageAspect=0;image=https://static.thenounproject.com/png/4446-200.png;imageBackground=#ffffff;" vertex="1" parent="1">
          <mxGeometry x="426.31193" y="186.94" width="23.756140000000002" height="23.756140000000002" as="geometry" />
        </mxCell>
        <mxCell id="Wq48PtBASZIQ_A7TdbFt-31" value="&lt;font color=&quot;#000000&quot; style=&quot;font-size: 12px;&quot;&gt;&lt;b&gt;Terraform Apply&lt;/b&gt;&lt;/font&gt;" style="text;html=1;align=center;verticalAlign=middle;resizable=0;points=[];autosize=1;strokeColor=none;fillColor=none;" vertex="1" parent="1">
          <mxGeometry x="365" y="390" width="120" height="30" as="geometry" />
        </mxCell>
        <mxCell id="Wq48PtBASZIQ_A7TdbFt-33" style="edgeStyle=orthogonalEdgeStyle;rounded=0;orthogonalLoop=1;jettySize=auto;html=1;entryX=0;entryY=0.5;entryDx=0;entryDy=0;strokeColor=#000000;" edge="1" parent="1" source="Wq48PtBASZIQ_A7TdbFt-19" target="Wq48PtBASZIQ_A7TdbFt-6">
          <mxGeometry relative="1" as="geometry">
            <Array as="points">
              <mxPoint x="138" y="415" />
            </Array>
          </mxGeometry>
        </mxCell>
        <mxCell id="Wq48PtBASZIQ_A7TdbFt-35" value="&lt;font color=&quot;#000000&quot;&gt;&lt;b&gt;Update Infrastructure&lt;/b&gt;&lt;/font&gt;" style="text;html=1;align=center;verticalAlign=middle;whiteSpace=wrap;rounded=0;perimeterSpacing=0;strokeColor=#000000;strokeWidth=3;" vertex="1" parent="1">
          <mxGeometry x="770" y="276.25" width="95" height="50" as="geometry" />
        </mxCell>
        <mxCell id="Wq48PtBASZIQ_A7TdbFt-39" style="edgeStyle=orthogonalEdgeStyle;rounded=0;orthogonalLoop=1;jettySize=auto;html=1;entryX=0;entryY=0.5;entryDx=0;entryDy=0;exitX=1.001;exitY=0.835;exitDx=0;exitDy=0;exitPerimeter=0;strokeColor=#000000;" edge="1" parent="1" source="Wq48PtBASZIQ_A7TdbFt-12" target="Wq48PtBASZIQ_A7TdbFt-35">
          <mxGeometry relative="1" as="geometry" />
        </mxCell>
        <mxCell id="Wq48PtBASZIQ_A7TdbFt-40" value="" style="image;points=[];aspect=fixed;html=1;align=center;shadow=0;dashed=0;image=img/lib/allied_telesis/storage/Datacenter_Server_Rack.svg;" vertex="1" parent="1">
          <mxGeometry x="870" y="171.2" width="48.74" height="98.8" as="geometry" />
        </mxCell>
      </root>
    </mxGraphModel>
  </diagram>
</mxfile>
